# xmcd
#
# Track frame offsets:
#	150
#	12663
#	26898
#	44901
#	64332
#	78804
#	94391
#	109104
#	124961
#	141371
#	154583
#	171142
#	186178
#	202599
#	217939
#	232973
#	249187
#	264358
#	278781
#	294096
#	308400
#
# Disc length: 4321 seconds
#
# Revision: 14
# Processed by: cddbd v1.5.2PL0 Copyright (c) Steve Scherf et al.
# Submitted via: EasyCDDAExtractor 12.0.1.1
#
DISCID=2310df15
DTITLE=Bellamy Brothers - Best Of The Best
DYEAR=1995
DGENRE=Country
TTITLE0=Let Your Love Flow
TTITLE1=If I Said You Had A Beautiful Body (Would You Hold It Against Me)
TTITLE2=Old Hippie
TTITLE3=You Ain't Just Whistlin' Dixie
TTITLE4=Dancin' Cowboys
TTITLE5=Sugar Daddy
TTITLE6=Lovers Live Longer
TTITLE7=Crazy From The Heart
TTITLE8=Feelin' The Feelin'
TTITLE9=Do You Love As Good As You Look
TTITLE10=For All The Wrong Reasons
TTITLE11=Redneck Girl
TTITLE12=When I'm Away From You
TTITLE13=I'd Lie To You For Your Love
TTITLE14=You'll Never Be Sorry
TTITLE15=Sante Fe
TTITLE16=I Need More Of You
TTITLE17=Big Love
TTITLE18=Kids Of The Baby Boom
TTITLE19=Get Into Reggae Couwboy
TTITLE20=Cowboy Beat
EXTD=YEAR: 1995 ID3G: 2
EXTT0=
EXTT1=
EXTT2=
EXTT3=
EXTT4=
EXTT5=
EXTT6=
EXTT7=
EXTT8=
EXTT9=
EXTT10=
EXTT11=
EXTT12=
EXTT13=
EXTT14=
EXTT15=
EXTT16=
EXTT17=
EXTT18=
EXTT19=
EXTT20=
PLAYORDER=
